<mxfile host="app.diagrams.net" modified="2024-07-09T18:40:31.804Z" agent="Mozilla/5.0 (Windows NT 10.0; Win64; x64) AppleWebKit/537.36 (KHTML, like Gecko) Chrome/126.0.0.0 Safari/537.36" etag="M51i1CQ1KDTALpuifdnh" version="24.6.4" type="github" pages="2">
  <diagram name="Page-1" id="ueptXwW2cMjWxCsT8p4o">
    <mxGraphModel dx="780" dy="440" grid="0" gridSize="10" guides="1" tooltips="1" connect="1" arrows="1" fold="1" page="1" pageScale="1" pageWidth="850" pageHeight="1100" math="0" shadow="0">
      <root>
        <mxCell id="0" />
        <mxCell id="1" parent="0" />
        <mxCell id="nBNJmO_OEZoaWbE1HV-C-23" style="edgeStyle=orthogonalEdgeStyle;rounded=0;orthogonalLoop=1;jettySize=auto;html=1;exitX=0;exitY=0.5;exitDx=0;exitDy=0;" edge="1" parent="1" source="SUeZN_Ho-UncdOjATHWY-8">
          <mxGeometry relative="1" as="geometry">
            <mxPoint x="380.66668701171875" y="230" as="targetPoint" />
          </mxGeometry>
        </mxCell>
        <mxCell id="SUeZN_Ho-UncdOjATHWY-8" value="dokcer image" style="whiteSpace=wrap;html=1;direction=west;" parent="1" vertex="1">
          <mxGeometry x="211.99668701171873" y="199.66665649414062" width="120" height="60" as="geometry" />
        </mxCell>
        <mxCell id="nBNJmO_OEZoaWbE1HV-C-13" style="edgeStyle=orthogonalEdgeStyle;rounded=0;orthogonalLoop=1;jettySize=auto;html=1;exitX=1;exitY=0.5;exitDx=0;exitDy=0;entryX=1;entryY=0.5;entryDx=0;entryDy=0;" edge="1" parent="1" source="SUeZN_Ho-UncdOjATHWY-9" target="SUeZN_Ho-UncdOjATHWY-8">
          <mxGeometry relative="1" as="geometry" />
        </mxCell>
        <mxCell id="SUeZN_Ho-UncdOjATHWY-9" value="dcoker file&amp;nbsp;" style="whiteSpace=wrap;html=1;" parent="1" vertex="1">
          <mxGeometry x="50.99668701171875" y="196.99665649414064" width="120" height="60" as="geometry" />
        </mxCell>
        <mxCell id="nBNJmO_OEZoaWbE1HV-C-34" style="edgeStyle=orthogonalEdgeStyle;rounded=0;orthogonalLoop=1;jettySize=auto;html=1;" edge="1" parent="1">
          <mxGeometry relative="1" as="geometry">
            <mxPoint x="264" y="415" as="targetPoint" />
            <mxPoint x="246.32999999999998" y="510.99665649414055" as="sourcePoint" />
          </mxGeometry>
        </mxCell>
        <mxCell id="nBNJmO_OEZoaWbE1HV-C-3" value="dev" style="whiteSpace=wrap;html=1;" vertex="1" parent="1">
          <mxGeometry x="202.99668701171873" y="351.9966564941406" width="120" height="60" as="geometry" />
        </mxCell>
        <mxCell id="nBNJmO_OEZoaWbE1HV-C-32" style="edgeStyle=orthogonalEdgeStyle;rounded=0;orthogonalLoop=1;jettySize=auto;html=1;entryX=0.519;entryY=1.127;entryDx=0;entryDy=0;entryPerimeter=0;" edge="1" parent="1" target="nBNJmO_OEZoaWbE1HV-C-4">
          <mxGeometry relative="1" as="geometry">
            <mxPoint x="386" y="613" as="targetPoint" />
            <mxPoint x="437" y="512" as="sourcePoint" />
            <Array as="points">
              <mxPoint x="438" y="512" />
              <mxPoint x="438" y="468" />
              <mxPoint x="437" y="468" />
            </Array>
          </mxGeometry>
        </mxCell>
        <mxCell id="nBNJmO_OEZoaWbE1HV-C-4" value="test" style="shape=note;whiteSpace=wrap;html=1;backgroundOutline=1;darkOpacity=0.05;fillStyle=solid;direction=east;gradientDirection=north;shadow=1;size=20;pointerEvents=1;" vertex="1" parent="1">
          <mxGeometry x="364" y="345" width="140" height="79" as="geometry" />
        </mxCell>
        <mxCell id="nBNJmO_OEZoaWbE1HV-C-33" style="edgeStyle=orthogonalEdgeStyle;rounded=0;orthogonalLoop=1;jettySize=auto;html=1;entryX=0.5;entryY=1;entryDx=0;entryDy=0;" edge="1" parent="1">
          <mxGeometry relative="1" as="geometry">
            <mxPoint x="630.9966870117187" y="423.99665649414055" as="targetPoint" />
            <mxPoint x="252" y="512" as="sourcePoint" />
          </mxGeometry>
        </mxCell>
        <mxCell id="nBNJmO_OEZoaWbE1HV-C-6" value="prod" style="rhombus;whiteSpace=wrap;html=1;" vertex="1" parent="1">
          <mxGeometry x="590.9966870117188" y="347.9966564941406" width="80" height="80" as="geometry" />
        </mxCell>
        <mxCell id="nBNJmO_OEZoaWbE1HV-C-7" value="push" style="text;html=1;align=center;verticalAlign=middle;whiteSpace=wrap;rounded=0;" vertex="1" parent="1">
          <mxGeometry x="323" y="229.67000000000002" width="60" height="30" as="geometry" />
        </mxCell>
        <mxCell id="nBNJmO_OEZoaWbE1HV-C-8" value="docker workflow" style="text;html=1;align=center;verticalAlign=middle;whiteSpace=wrap;rounded=0;" vertex="1" parent="1">
          <mxGeometry x="68" y="40" width="187" height="30" as="geometry" />
        </mxCell>
        <mxCell id="nBNJmO_OEZoaWbE1HV-C-17" style="edgeStyle=orthogonalEdgeStyle;rounded=0;orthogonalLoop=1;jettySize=auto;html=1;entryX=0.496;entryY=0.1;entryDx=0;entryDy=0;entryPerimeter=0;" edge="1" parent="1" source="nBNJmO_OEZoaWbE1HV-C-14" target="nBNJmO_OEZoaWbE1HV-C-6">
          <mxGeometry relative="1" as="geometry" />
        </mxCell>
        <mxCell id="nBNJmO_OEZoaWbE1HV-C-18" value="Build" style="text;html=1;align=center;verticalAlign=middle;whiteSpace=wrap;rounded=0;" vertex="1" parent="1">
          <mxGeometry x="162" y="199.67000000000002" width="60" height="30" as="geometry" />
        </mxCell>
        <mxCell id="nBNJmO_OEZoaWbE1HV-C-19" value="pull" style="text;html=1;align=center;verticalAlign=middle;whiteSpace=wrap;rounded=0;" vertex="1" parent="1">
          <mxGeometry x="510" y="255" width="60" height="30" as="geometry" />
        </mxCell>
        <mxCell id="nBNJmO_OEZoaWbE1HV-C-26" style="edgeStyle=orthogonalEdgeStyle;rounded=0;orthogonalLoop=1;jettySize=auto;html=1;" edge="1" parent="1" source="nBNJmO_OEZoaWbE1HV-C-14" target="nBNJmO_OEZoaWbE1HV-C-4">
          <mxGeometry relative="1" as="geometry" />
        </mxCell>
        <mxCell id="nBNJmO_OEZoaWbE1HV-C-27" style="edgeStyle=orthogonalEdgeStyle;rounded=0;orthogonalLoop=1;jettySize=auto;html=1;exitX=0.25;exitY=1;exitDx=0;exitDy=0;entryX=0.75;entryY=0;entryDx=0;entryDy=0;" edge="1" parent="1" source="nBNJmO_OEZoaWbE1HV-C-14" target="nBNJmO_OEZoaWbE1HV-C-3">
          <mxGeometry relative="1" as="geometry" />
        </mxCell>
        <mxCell id="nBNJmO_OEZoaWbE1HV-C-14" value="registry" style="rounded=0;whiteSpace=wrap;html=1;" vertex="1" parent="1">
          <mxGeometry x="374" y="199.67" width="120" height="60" as="geometry" />
        </mxCell>
        <mxCell id="nBNJmO_OEZoaWbE1HV-C-35" value="run" style="text;html=1;align=center;verticalAlign=middle;whiteSpace=wrap;rounded=0;" vertex="1" parent="1">
          <mxGeometry x="460" y="480" width="60" height="30" as="geometry" />
        </mxCell>
      </root>
    </mxGraphModel>
  </diagram>
  <diagram id="m7o4-ZAieRl_6NFLLK8j" name="Page-2">
    <mxGraphModel dx="780" dy="440" grid="0" gridSize="10" guides="1" tooltips="1" connect="1" arrows="1" fold="1" page="1" pageScale="1" pageWidth="850" pageHeight="1100" math="0" shadow="0">
      <root>
        <mxCell id="0" />
        <mxCell id="1" parent="0" />
      </root>
    </mxGraphModel>
  </diagram>
</mxfile>
